<svg width="291" height="60" viewBox="0 0 291 60" fill="none" xmlns="http://www.w3.org/2000/svg">
<path d="M22.6 8.70001V30.2L17.7 27.4C9 22.4 3.59999 13.1 3.59999 3H0V27.6C0 35.6 4.59999 43 11.9 46.5L22.7 51.7V30.2L27.6 33C36.3 38 41.7 47.3 41.7 57.4H45.3V32.8C45.3 24.8 40.7 17.4 33.4 13.9L22.6 8.70001Z" fill="#039855"/>
<path d="M78.7581 15.92V21.4H71.3181V44H64.4781V21.4H57.0381V15.92H78.7581ZM103.231 32.48C103.231 33.12 103.191 33.7867 103.111 34.48H87.6309C87.7376 35.8667 88.1776 36.9333 88.9509 37.68C89.7509 38.4 90.7243 38.76 91.8709 38.76C93.5776 38.76 94.7643 38.04 95.4309 36.6H102.711C102.338 38.0667 101.658 39.3867 100.671 40.56C99.7109 41.7333 98.4976 42.6533 97.0309 43.32C95.5643 43.9867 93.9243 44.32 92.1109 44.32C89.9243 44.32 87.9776 43.8533 86.2709 42.92C84.5643 41.9867 83.2309 40.6533 82.2709 38.92C81.3109 37.1867 80.8309 35.16 80.8309 32.84C80.8309 30.52 81.2976 28.4933 82.2309 26.76C83.1909 25.0267 84.5243 23.6933 86.2309 22.76C87.9376 21.8267 89.8976 21.36 92.1109 21.36C94.2709 21.36 96.1909 21.8133 97.8709 22.72C99.5509 23.6267 100.858 24.92 101.791 26.6C102.751 28.28 103.231 30.24 103.231 32.48ZM96.2309 30.68C96.2309 29.5067 95.8309 28.5733 95.0309 27.88C94.2309 27.1867 93.2309 26.84 92.0309 26.84C90.8843 26.84 89.9109 27.1733 89.1109 27.84C88.3376 28.5067 87.8576 29.4533 87.6709 30.68H96.2309ZM105.479 32.84C105.479 30.52 105.946 28.4933 106.879 26.76C107.839 25.0267 109.159 23.6933 110.839 22.76C112.546 21.8267 114.493 21.36 116.679 21.36C119.479 21.36 121.813 22.0933 123.679 23.56C125.573 25.0267 126.813 27.0933 127.399 29.76H120.119C119.506 28.0533 118.319 27.2 116.559 27.2C115.306 27.2 114.306 27.6933 113.559 28.68C112.813 29.64 112.439 31.0267 112.439 32.84C112.439 34.6533 112.813 36.0533 113.559 37.04C114.306 38 115.306 38.48 116.559 38.48C118.319 38.48 119.506 37.6267 120.119 35.92H127.399C126.813 38.5333 125.573 40.5867 123.679 42.08C121.786 43.5733 119.453 44.32 116.679 44.32C114.493 44.32 112.546 43.8533 110.839 42.92C109.159 41.9867 107.839 40.6533 106.879 38.92C105.946 37.1867 105.479 35.16 105.479 32.84ZM144.778 21.44C147.338 21.44 149.391 22.2933 150.938 24C152.485 25.68 153.258 28 153.258 30.96V44H146.458V31.88C146.458 30.3867 146.071 29.2267 145.298 28.4C144.525 27.5733 143.485 27.16 142.178 27.16C140.871 27.16 139.831 27.5733 139.058 28.4C138.285 29.2267 137.898 30.3867 137.898 31.88V44H131.058V14.4H137.898V24.68C138.591 23.6933 139.538 22.9067 140.738 22.32C141.938 21.7333 143.285 21.44 144.778 21.44ZM171.651 44L164.851 34.64V44H158.011V14.4H164.851V30.76L171.611 21.68H180.051L170.771 32.88L180.131 44H171.651ZM181.378 32.8C181.378 30.5067 181.804 28.4933 182.658 26.76C183.538 25.0267 184.724 23.6933 186.218 22.76C187.711 21.8267 189.378 21.36 191.218 21.36C192.791 21.36 194.164 21.68 195.338 22.32C196.538 22.96 197.458 23.8 198.098 24.84V21.68H204.938V44H198.098V40.84C197.431 41.88 196.498 42.72 195.298 43.36C194.124 44 192.751 44.32 191.178 44.32C189.364 44.32 187.711 43.8533 186.218 42.92C184.724 41.96 183.538 40.6133 182.658 38.88C181.804 37.12 181.378 35.0933 181.378 32.8ZM198.098 32.84C198.098 31.1333 197.618 29.7867 196.658 28.8C195.724 27.8133 194.578 27.32 193.218 27.32C191.858 27.32 190.698 27.8133 189.738 28.8C188.804 29.76 188.338 31.0933 188.338 32.8C188.338 34.5067 188.804 35.8667 189.738 36.88C190.698 37.8667 191.858 38.36 193.218 38.36C194.578 38.36 195.724 37.8667 196.658 36.88C197.618 35.8933 198.098 34.5467 198.098 32.84ZM216.726 25.4C217.526 24.1733 218.526 23.2133 219.726 22.52C220.926 21.8 222.26 21.44 223.726 21.44V28.68H221.846C220.14 28.68 218.86 29.0533 218.006 29.8C217.153 30.52 216.726 31.8 216.726 33.64V44H209.886V21.68H216.726V25.4ZM248.036 32.48C248.036 33.12 247.996 33.7867 247.916 34.48H232.436C232.542 35.8667 232.982 36.9333 233.756 37.68C234.556 38.4 235.529 38.76 236.676 38.76C238.382 38.76 239.569 38.04 240.236 36.6H247.516C247.142 38.0667 246.462 39.3867 245.476 40.56C244.516 41.7333 243.302 42.6533 241.836 43.32C240.369 43.9867 238.729 44.32 236.916 44.32C234.729 44.32 232.782 43.8533 231.076 42.92C229.369 41.9867 228.036 40.6533 227.076 38.92C226.116 37.1867 225.636 35.16 225.636 32.84C225.636 30.52 226.102 28.4933 227.036 26.76C227.996 25.0267 229.329 23.6933 231.036 22.76C232.742 21.8267 234.702 21.36 236.916 21.36C239.076 21.36 240.996 21.8133 242.676 22.72C244.356 23.6267 245.662 24.92 246.596 26.6C247.556 28.28 248.036 30.24 248.036 32.48ZM241.036 30.68C241.036 29.5067 240.636 28.5733 239.836 27.88C239.036 27.1867 238.036 26.84 236.836 26.84C235.689 26.84 234.716 27.1733 233.916 27.84C233.142 28.5067 232.662 29.4533 232.476 30.68H241.036ZM272.684 32.48C272.684 33.12 272.644 33.7867 272.564 34.48H257.084C257.191 35.8667 257.631 36.9333 258.404 37.68C259.204 38.4 260.177 38.76 261.324 38.76C263.031 38.76 264.217 38.04 264.884 36.6H272.164C271.791 38.0667 271.111 39.3867 270.124 40.56C269.164 41.7333 267.951 42.6533 266.484 43.32C265.017 43.9867 263.377 44.32 261.564 44.32C259.377 44.32 257.431 43.8533 255.724 42.92C254.017 41.9867 252.684 40.6533 251.724 38.92C250.764 37.1867 250.284 35.16 250.284 32.84C250.284 30.52 250.751 28.4933 251.684 26.76C252.644 25.0267 253.977 23.6933 255.684 22.76C257.391 21.8267 259.351 21.36 261.564 21.36C263.724 21.36 265.644 21.8133 267.324 22.72C269.004 23.6267 270.311 24.92 271.244 26.6C272.204 28.28 272.684 30.24 272.684 32.48ZM265.684 30.68C265.684 29.5067 265.284 28.5733 264.484 27.88C263.684 27.1867 262.684 26.84 261.484 26.84C260.337 26.84 259.364 27.1733 258.564 27.84C257.791 28.5067 257.311 29.4533 257.124 30.68H265.684ZM283.133 25.4C283.933 24.1733 284.933 23.2133 286.133 22.52C287.333 21.8 288.666 21.44 290.133 21.44V28.68H288.253C286.546 28.68 285.266 29.0533 284.413 29.8C283.559 30.52 283.133 31.8 283.133 33.64V44H276.293V21.68H283.133V25.4Z" fill="black"/>
</svg>
